<svg width="16" height="16" viewBox="0 0 16 16" fill="none" xmlns="http://www.w3.org/2000/svg">
<g clip-path="url(#clip0_441_2377)">
<path d="M0 13.6667H3.98644C3.17707 13.0412 2.521 12.2345 2.06937 11.3094C1.61773 10.3842 1.38276 9.36577 1.38276 8.33333C1.38276 7.3009 1.61773 6.28242 2.06937 5.35731C2.521 4.4322 3.17707 3.62546 3.98644 3L0 3" fill="#1D2954"/>
<path d="M15.9999 13.6667H12.0135C12.8227 13.041 13.4785 12.2341 13.9299 11.3089C14.3813 10.3836 14.616 9.36508 14.6158 8.33265C14.6155 7.30022 14.3803 6.2818 13.9284 5.35681C13.4766 4.43182 12.8203 3.62525 12.0107 3L15.9999 3" fill="#1D2954"/>
<path d="M5.71276 9.67222C5.78508 11.1979 6.87796 11.8832 8.22576 11.8832C9.42259 11.8832 10.1901 11.4006 10.1901 10.5749C10.1901 9.82818 9.607 9.54745 8.59367 9.34562L6.75593 9.00251C5.25174 8.72271 4.20858 7.88145 4.20858 6.26223C4.20858 4.42742 5.63593 3.24121 7.89129 3.24121C10.4224 3.24121 11.8497 4.56503 11.8804 6.74478L10.1159 6.80716C10.0545 5.46775 9.1948 4.76777 7.87593 4.76777C6.74056 4.76777 6.09604 5.28152 6.09604 6.12186C6.09604 6.83836 6.60225 7.08789 7.47638 7.25853L9.25627 7.58696C11.1546 7.94475 12.0486 8.86307 12.0486 10.452C12.0486 12.3786 10.407 13.4253 8.22847 13.4253C5.7435 13.4253 3.94824 12.118 3.94824 9.7557L5.71276 9.67222Z" fill="#1D2954"/>
</g>
<defs>
<clipPath id="clip0_441_2377">
<rect width="16" height="10.6667" fill="white" transform="translate(0 3)"/>
</clipPath>
</defs>
</svg>
